<svg width="36" height="36" viewBox="0 0 36 36" fill="none" xmlns="http://www.w3.org/2000/svg">
<path d="M11.6472 25.8942C10.245 25.8942 9.11061 27.0415 9.11061 28.4436C9.11061 29.8458 10.245 30.993 11.6472 30.993C13.0493 30.993 14.1965 29.8458 14.1965 28.4436C14.1965 27.0415 13.0493 25.8942 11.6472 25.8942ZM3.99927 5.49915V8.04853H6.54857L11.1373 17.7235L9.41653 20.8464C9.21258 21.2034 9.09786 21.624 9.09786 22.0702C9.09786 23.4723 10.245 24.6195 11.6472 24.6195H26.943V22.0702H12.1825C12.0041 22.0702 11.8639 21.9299 11.8639 21.7515L11.9021 21.5985L13.0493 19.5208H22.5454C23.5014 19.5208 24.3427 18.9981 24.776 18.2078L29.3393 9.93508C29.4445 9.74054 29.4974 9.52205 29.4929 9.30095C29.4883 9.07986 29.4266 8.86371 29.3135 8.67363C29.2005 8.48354 29.0401 8.32603 28.8481 8.21647C28.656 8.1069 28.4387 8.04904 28.2176 8.04853H9.36554L8.16737 5.49915H3.99927ZM24.3937 25.8942C22.9915 25.8942 21.8571 27.0415 21.8571 28.4436C21.8571 29.8458 22.9915 30.993 24.3937 30.993C25.7958 30.993 26.943 29.8458 26.943 28.4436C26.943 27.0415 25.7958 25.8942 24.3937 25.8942Z" fill="white" fill-opacity="0.8"/>
</svg>
