<svg width="67" height="44" viewBox="0 0 67 44" fill="none" xmlns="http://www.w3.org/2000/svg">
<g filter="url(#filter0_d_1054_614)">
<path d="M15.2163 9.71859C13.5912 7.9175 13.7306 5.03579 15.2163 3.95517C17.5936 2.22615 21.1597 3.23475 22.6455 3.95517C28.8365 6.95695 40.9954 14.3293 40.1039 19.8046C39.2125 25.2798 18.4357 34.3332 8.15877 38.1754C6.67301 38.7309 3.4785 39.9044 4.07283 36.7346C4.66716 33.5647 10.759 29.1701 13.3591 27.7293L22.6455 22.6862C23.7599 21.9658 25.5444 20.8852 25.5444 19.4443C25.5444 17.6433 23.1408 15.9623 21.9026 15.1218C20.5406 14.2813 17.2965 12.024 15.2163 9.71859Z" fill="#F26D1E"/>
<path d="M15.2163 9.71859C13.5912 7.9175 13.7306 5.03579 15.2163 3.95517C17.5936 2.22615 21.1597 3.23475 22.6455 3.95517C28.8365 6.95695 40.9954 14.3293 40.1039 19.8046C39.2125 25.2798 18.4357 34.3332 8.15877 38.1754C6.67301 38.7309 3.4785 39.9044 4.07283 36.7346C4.66716 33.5647 10.759 29.1701 13.3591 27.7293L22.6455 22.6862C23.7599 21.9658 25.5444 20.8852 25.5444 19.4443C25.5444 17.6433 23.1408 15.9623 21.9026 15.1218C20.5406 14.2813 17.2965 12.024 15.2163 9.71859Z" stroke="#F0EEEE" stroke-width="4.49892"/>
</g>
<path d="M15.2163 9.71859C13.5912 7.9175 13.7306 5.03579 15.2163 3.95517C17.5936 2.22615 21.1597 3.23475 22.6455 3.95517C28.8365 6.95695 40.9954 14.3293 40.1039 19.8046C39.2125 25.2798 18.4357 34.3332 8.15877 38.1754C6.67301 38.7309 3.4785 39.9044 4.07283 36.7346C4.66716 33.5647 10.759 29.1701 13.3591 27.7293L22.6455 22.6862C23.7599 21.9658 25.5444 20.8852 25.5444 19.4443C25.5444 17.6433 23.1408 15.9623 21.9026 15.1218C20.5406 14.2813 17.2965 12.024 15.2163 9.71859Z" fill="#F26D1E"/>
<g filter="url(#filter1_f_1054_614)">
<path d="M32.972 23.7666C26.8147 26.3058 19.6152 28.7019 18.3519 27.3581C17.0886 26.0144 27.4003 23.4064 27.4003 19.4441C27.4003 17.2828 25.1112 15.4232 24.0572 14.4011C21.4569 11.8795 19.5997 10.7989 17.7424 8.63766C14.8944 5.32355 17.3455 4.31515 21.4569 6.11622C24.9911 7.66445 32.8935 11.8795 37.0326 16.5623C39.2613 19.0838 38.4839 21.4937 32.972 23.7666Z" fill="#F4901A" fill-opacity="0.8"/>
</g>
<g filter="url(#filter2_d_1054_614)">
<path d="M37.5021 9.7181C35.877 7.91701 36.0164 5.0353 37.5021 3.95468C39.8793 2.22566 43.4454 3.23426 44.9313 3.95468C51.1222 6.95646 63.2812 14.3288 62.3897 19.8041C61.4982 25.2793 40.7215 34.3327 30.4445 38.175C28.9588 38.7304 25.7643 39.904 26.3586 36.7341C26.9529 33.5642 33.0447 29.1696 35.6449 27.7288L44.9313 22.6858C46.0457 21.9653 47.8302 20.8847 47.8302 19.4438C47.8302 17.6428 45.4266 15.9618 44.1884 15.1213C42.8264 14.2808 39.5823 12.0235 37.5021 9.7181Z" fill="#F26D1E"/>
<path d="M37.5021 9.7181C35.877 7.91701 36.0164 5.0353 37.5021 3.95468C39.8793 2.22566 43.4454 3.23426 44.9313 3.95468C51.1222 6.95646 63.2812 14.3288 62.3897 19.8041C61.4982 25.2793 40.7215 34.3327 30.4445 38.175C28.9588 38.7304 25.7643 39.904 26.3586 36.7341C26.9529 33.5642 33.0447 29.1696 35.6449 27.7288L44.9313 22.6858C46.0457 21.9653 47.8302 20.8847 47.8302 19.4438C47.8302 17.6428 45.4266 15.9618 44.1884 15.1213C42.8264 14.2808 39.5823 12.0235 37.5021 9.7181Z" stroke="#F0EEEE" stroke-width="4.49892"/>
</g>
<path d="M45.5931 20.9092L43.0814 22.2732C41.624 23.0646 40.0121 21.5138 40.7467 20.027C40.9949 19.5247 40.9795 18.9323 40.7057 18.4435L39.3427 16.0107C39.0587 15.5038 38.7026 15.0408 38.2854 14.6363L36.3143 12.7248L33.4339 10.3306C32.7925 9.79746 33.2673 8.75882 34.0902 8.89509C34.1066 8.89782 34.1222 8.90086 34.1385 8.90449C34.2922 8.93868 35.1684 9.1281 35.9449 9.18066C36.184 9.19684 36.417 9.27401 36.6062 9.42105C36.6591 9.46217 36.7081 9.50813 36.7524 9.55834L38.5635 11.6073C38.797 11.8715 39.0534 12.1146 39.3296 12.3337L43.0005 15.2463L45.9862 18.2986C46.5182 18.8424 46.6107 19.6789 46.2105 20.3258C46.059 20.5707 45.8462 20.7718 45.5931 20.9092Z" fill="#F0EEEE"/>
<path d="M37.5021 9.7181C35.877 7.91701 36.0164 5.0353 37.5021 3.95468C39.8793 2.22566 43.4454 3.23426 44.9313 3.95468C51.1222 6.95646 63.2812 14.3288 62.3897 19.8041C61.4982 25.2793 40.7215 34.3327 30.4445 38.175C28.9588 38.7304 25.7643 39.904 26.3586 36.7341C26.9529 33.5642 33.0447 29.1696 35.6449 27.7288L44.9313 22.6858C46.0457 21.9653 47.8302 20.8847 47.8302 19.4438C47.8302 17.6428 45.4266 15.9618 44.1884 15.1213C42.8264 14.2808 39.5823 12.0235 37.5021 9.7181Z" fill="#F26D1E"/>
<path d="M33.8121 26.6003L39.6222 22.3746C40.2427 21.9233 41.1132 22.3665 41.1132 23.1339C41.1132 23.4554 40.9487 23.7546 40.6771 23.9267L33.2036 28.6654L28.9446 31.3204L27.779 32.2624C27.4025 32.5667 26.858 32.5421 26.5105 32.205C26.0535 31.7619 26.1481 31.0045 26.7 30.6873L33.8121 26.6003Z" fill="#F0EEEE"/>
<g filter="url(#filter3_f_1054_614)">
<path d="M55.2617 23.766C49.6899 26.3052 41.9269 28.7013 40.9089 27.3575C39.8909 26.0138 49.6899 23.4058 49.6899 19.4435C49.6899 17.2822 47.4009 15.4226 46.3468 14.4005C43.7466 11.8789 41.8894 10.7983 40.0321 8.63705C37.1841 5.32294 39.6351 4.31454 43.7466 6.11561C47.2808 7.66384 55.1832 11.8789 59.3222 16.5617C61.551 19.0832 60.6825 21.2957 55.2617 23.766Z" fill="#F4901A" fill-opacity="0.8"/>
</g>
<defs>
<filter id="filter0_d_1054_614" x="0.25146" y="0.00152338" width="43.6487" height="43.3512" filterUnits="userSpaceOnUse" color-interpolation-filters="sRGB">
<feFlood flood-opacity="0" result="BackgroundImageFix"/>
<feColorMatrix in="SourceAlpha" type="matrix" values="0 0 0 0 0 0 0 0 0 0 0 0 0 0 0 0 0 0 127 0" result="hardAlpha"/>
<feOffset dy="0.749819"/>
<feGaussianBlur stdDeviation="0.749819"/>
<feColorMatrix type="matrix" values="0 0 0 0 0 0 0 0 0 0 0 0 0 0 0 0 0 0 0.25 0"/>
<feBlend mode="normal" in2="BackgroundImageFix" result="effect1_dropShadow_1054_614"/>
<feBlend mode="normal" in="SourceGraphic" in2="effect1_dropShadow_1054_614" result="shape"/>
</filter>
<filter id="filter1_f_1054_614" x="15.7619" y="4.48309" width="23.1834" height="24.0111" filterUnits="userSpaceOnUse" color-interpolation-filters="sRGB">
<feFlood flood-opacity="0" result="BackgroundImageFix"/>
<feBlend mode="normal" in="SourceGraphic" in2="BackgroundImageFix" result="shape"/>
<feGaussianBlur stdDeviation="0.37491" result="effect1_foregroundBlur_1054_614"/>
</filter>
<filter id="filter2_d_1054_614" x="22.5372" y="0.00103509" width="43.6487" height="43.3512" filterUnits="userSpaceOnUse" color-interpolation-filters="sRGB">
<feFlood flood-opacity="0" result="BackgroundImageFix"/>
<feColorMatrix in="SourceAlpha" type="matrix" values="0 0 0 0 0 0 0 0 0 0 0 0 0 0 0 0 0 0 127 0" result="hardAlpha"/>
<feOffset dy="0.749819"/>
<feGaussianBlur stdDeviation="0.749819"/>
<feColorMatrix type="matrix" values="0 0 0 0 0 0 0 0 0 0 0 0 0 0 0 0 0 0 0.25 0"/>
<feBlend mode="normal" in2="BackgroundImageFix" result="effect1_dropShadow_1054_614"/>
<feBlend mode="normal" in="SourceGraphic" in2="effect1_dropShadow_1054_614" result="shape"/>
</filter>
<filter id="filter3_f_1054_614" x="38.0516" y="4.48248" width="23.163" height="24.0111" filterUnits="userSpaceOnUse" color-interpolation-filters="sRGB">
<feFlood flood-opacity="0" result="BackgroundImageFix"/>
<feBlend mode="normal" in="SourceGraphic" in2="BackgroundImageFix" result="shape"/>
<feGaussianBlur stdDeviation="0.37491" result="effect1_foregroundBlur_1054_614"/>
</filter>
</defs>
</svg>
