<svg width="14" height="13" viewBox="0 0 14 13" fill="none" xmlns="http://www.w3.org/2000/svg">
<path fill-rule="evenodd" clip-rule="evenodd" d="M6.95423 10.9688C6.97215 10.9604 6.98641 10.9555 7 10.954C7.01958 10.9518 7.03778 10.9568 7.0636 10.9687L10.1699 12.8578C10.323 12.9391 10.498 13 10.6949 13C10.9792 13 11.2855 12.8781 11.4605 12.6547C11.6355 12.4312 11.7011 12.1469 11.6355 11.8828L10.7386 8.32812C10.7386 8.2875 10.7605 8.24687 10.7824 8.22656L13.648 5.82969C13.9542 5.58594 14.0636 5.2 13.9324 4.85469C13.8011 4.50937 13.473 4.26562 13.0792 4.24531L9.38235 3.98125C9.3386 3.98125 9.31673 3.96094 9.29485 3.92031L7.91673 0.589061C7.76385 0.224029 7.41474 0.000724136 7 0H6.99798C6.58235 0 6.23235 0.223437 6.05735 0.589063L4.67923 3.92031C4.65735 3.96094 4.63548 3.98125 4.59173 3.98125L0.894851 4.24531C0.501101 4.26562 0.172976 4.50938 0.0417262 4.85469C-0.0676488 5.2 0.0417262 5.58594 0.326101 5.82969L3.19173 8.22656C3.23548 8.24688 3.23548 8.2875 3.23548 8.32812L2.36048 11.8828C2.27298 12.1469 2.3386 12.4312 2.53548 12.6547C2.71048 12.8781 2.99485 13 3.3011 13C3.49798 13 3.67298 12.9391 3.84798 12.8578L6.95423 10.9688ZM7 0.812866V10.1359C7.19605 10.1364 7.37045 10.1972 7.54485 10.2781L10.6511 12.1672C10.6949 12.2078 10.7605 12.1875 10.8042 12.1469C10.8261 12.1266 10.8261 12.1062 10.8261 12.0656L9.92923 8.51094C9.84173 8.18594 9.97298 7.84062 10.2355 7.61719L13.123 5.24062C13.1667 5.2 13.1667 5.15937 13.1449 5.13906C13.123 5.09844 13.1011 5.07812 13.0574 5.07812L9.36048 4.81406C8.9886 4.79375 8.66048 4.55 8.52923 4.225L7.10735 0.873436C7.08378 0.829655 7.04115 0.809465 7 0.812866Z" fill="#FF6500"/>
</svg>
