<svg width="16" height="15" viewBox="0 0 16 15" fill="none" xmlns="http://www.w3.org/2000/svg">
<path fill-rule="evenodd" clip-rule="evenodd" d="M11.1699 13.8578C11.323 13.9391 11.498 14 11.6949 14C11.9792 14 12.2855 13.8781 12.4605 13.6547C12.6355 13.4312 12.7011 13.1469 12.6355 12.8828L11.7386 9.32812C11.7386 9.2875 11.7605 9.24688 11.7824 9.22656L14.648 6.82969C14.9542 6.58594 15.0636 6.2 14.9324 5.85469C14.8011 5.50938 14.473 5.26562 14.0792 5.24531L10.3824 4.98125C10.3386 4.98125 10.3167 4.96094 10.2949 4.92031L8.91673 1.58906C8.7636 1.22344 8.4136 1 7.99798 1C7.58235 1 7.23235 1.22344 7.05735 1.58906L5.67923 4.92031C5.65735 4.96094 5.63548 4.98125 5.59173 4.98125L1.89485 5.24531C1.5011 5.26562 1.17298 5.50938 1.04173 5.85469C0.932351 6.2 1.04173 6.58594 1.3261 6.82969L4.19173 9.22656C4.23548 9.24688 4.23548 9.2875 4.23548 9.32812L3.36048 12.8828C3.27298 13.1469 3.3386 13.4312 3.53548 13.6547C3.71048 13.8781 3.99485 14 4.3011 14C4.49798 14 4.67298 13.9391 4.84798 13.8578L7.95423 11.9688C7.99798 11.9484 8.01985 11.9484 8.0636 11.9688L11.1699 13.8578Z" fill="white"/>
<path d="M11.1699 13.8578L10.91 14.285L10.9226 14.2926L10.9355 14.2995L11.1699 13.8578ZM12.4605 13.6547L12.8541 13.963L12.8541 13.963L12.4605 13.6547ZM12.6355 12.8828L13.1207 12.7622L13.1203 12.7605L12.6355 12.8828ZM11.7386 9.32812H11.2386V9.39023L11.2538 9.45045L11.7386 9.32812ZM11.7824 9.22656L11.4616 8.84304L11.4516 8.85135L11.4421 8.86017L11.7824 9.22656ZM14.648 6.82969L14.3365 6.43836L14.3272 6.44616L14.648 6.82969ZM14.9324 5.85469L14.465 6.03233L14.465 6.03233L14.9324 5.85469ZM14.0792 5.24531L14.0436 5.74414L14.0535 5.74465L14.0792 5.24531ZM10.3824 4.98125L10.418 4.48252L10.4002 4.48125H10.3824V4.98125ZM10.2949 4.92031L9.83283 5.11145L9.84255 5.13496L9.85461 5.15736L10.2949 4.92031ZM8.91673 1.58906L9.37875 1.39792L9.37791 1.39592L8.91673 1.58906ZM7.05735 1.58906L6.60635 1.3732L6.6005 1.38541L6.59533 1.39792L7.05735 1.58906ZM5.67923 4.92031L6.11946 5.15736L6.13152 5.13496L6.14125 5.11145L5.67923 4.92031ZM5.59173 4.98125V4.48125H5.57389L5.5561 4.48252L5.59173 4.98125ZM1.89485 5.24531L1.92062 5.74475L1.93047 5.74404L1.89485 5.24531ZM1.04173 5.85469L0.574348 5.67704L0.56933 5.69024L0.565065 5.70371L1.04173 5.85469ZM1.3261 6.82969L1.00068 7.20934L1.00531 7.21321L1.3261 6.82969ZM4.19173 9.22656L3.87093 9.61009L3.92144 9.65233L3.98116 9.68006L4.19173 9.22656ZM4.23548 9.32812L4.72098 9.44763L4.73548 9.38876V9.32812H4.23548ZM3.36048 12.8828L3.8351 13.0401L3.84128 13.0214L3.84598 13.0023L3.36048 12.8828ZM3.53548 13.6547L3.92911 13.3464L3.92019 13.335L3.91063 13.3241L3.53548 13.6547ZM4.84798 13.8578L5.05853 14.3113L5.08389 14.2995L5.10778 14.285L4.84798 13.8578ZM7.95423 11.9688L7.74367 11.5152L7.71831 11.527L7.69442 11.5415L7.95423 11.9688ZM8.0636 11.9688L8.3234 11.5415L8.29952 11.527L8.27416 11.5152L8.0636 11.9688ZM11.6949 13.5C11.6041 13.5 11.5103 13.4724 11.4042 13.4161L10.9355 14.2995C11.1356 14.4057 11.3919 14.5 11.6949 14.5V13.5ZM12.0668 13.3464C12.005 13.4253 11.8581 13.5 11.6949 13.5V14.5C12.1003 14.5 12.5659 14.331 12.8541 13.963L12.0668 13.3464ZM12.1502 13.0034C12.1763 13.1084 12.1532 13.2361 12.0668 13.3464L12.8541 13.963C13.1178 13.6264 13.2259 13.1854 13.1207 12.7622L12.1502 13.0034ZM11.2538 9.45045L12.1507 13.0051L13.1203 12.7605L12.2234 9.2058L11.2538 9.45045ZM11.4421 8.86017C11.3299 8.96434 11.2386 9.13342 11.2386 9.32812H12.2386C12.2386 9.39463 12.2217 9.44589 12.2063 9.47925C12.1916 9.511 12.1667 9.55202 12.1226 9.59296L11.4421 8.86017ZM14.3272 6.44616L11.4616 8.84304L12.1031 9.61009L14.9688 7.21321L14.3272 6.44616ZM14.465 6.03233C14.5149 6.1636 14.4817 6.32296 14.3366 6.43848L14.9593 7.2209C15.4267 6.84892 15.6123 6.2364 15.3997 5.67704L14.465 6.03233ZM14.0535 5.74465C14.2525 5.75492 14.4053 5.87533 14.465 6.03233L15.3997 5.67704C15.1969 5.14342 14.6934 4.77633 14.105 4.74598L14.0535 5.74465ZM10.3467 5.47998L14.0436 5.74404L14.1148 4.74658L10.418 4.48252L10.3467 5.47998ZM9.85461 5.15736C9.87774 5.20031 9.93079 5.29203 10.0322 5.36739C10.1486 5.45382 10.2756 5.48125 10.3824 5.48125V4.48125C10.4454 4.48125 10.5396 4.49853 10.6286 4.56464C10.7027 4.61969 10.7338 4.68094 10.7351 4.68327L9.85461 5.15736ZM8.4547 1.7802L9.83283 5.11145L10.7569 4.72917L9.37875 1.39792L8.4547 1.7802ZM7.99798 1.5C8.22628 1.5 8.3856 1.61522 8.45554 1.78221L9.37791 1.39592C9.1416 0.831659 8.60092 0.5 7.99798 0.5V1.5ZM7.50835 1.80493C7.60013 1.61317 7.77458 1.5 7.99798 1.5V0.5C7.39012 0.5 6.86457 0.833703 6.60635 1.3732L7.50835 1.80493ZM6.14125 5.11145L7.51937 1.7802L6.59533 1.39792L5.2172 4.72918L6.14125 5.11145ZM5.59173 5.48125C5.6985 5.48125 5.82549 5.45382 5.94184 5.36739C6.04328 5.29203 6.09633 5.20032 6.11946 5.15736L5.23899 4.68326C5.24025 4.68093 5.27142 4.61969 5.34552 4.56464C5.43452 4.49853 5.5287 4.48125 5.59173 4.48125V5.48125ZM1.93047 5.74404L5.62735 5.47998L5.5561 4.48252L1.85923 4.74658L1.93047 5.74404ZM1.5091 6.03233C1.56878 5.87533 1.72157 5.75492 1.92061 5.74465L1.86909 4.74598C1.28063 4.77633 0.777172 5.14342 0.574348 5.67704L1.5091 6.03233ZM1.6515 6.45006C1.51701 6.33479 1.47052 6.1568 1.51839 6.00567L0.565065 5.70371C0.394186 6.2432 0.566439 6.83709 1.00071 7.20932L1.6515 6.45006ZM4.51252 8.84304L1.64689 6.44616L1.00531 7.21321L3.87093 9.61009L4.51252 8.84304ZM4.73548 9.32812C4.73548 9.32606 4.73964 9.22585 4.7079 9.12268C4.66448 8.98158 4.56371 8.84801 4.40229 8.77306L3.98116 9.68006C3.9323 9.65738 3.87985 9.62108 3.8347 9.56751C3.79012 9.51463 3.76545 9.4601 3.75212 9.41677C3.73961 9.37612 3.73682 9.34443 3.736 9.33263C3.73527 9.32215 3.73548 9.31469 3.73548 9.32812H4.73548ZM3.84598 13.0023L4.72098 9.44763L3.74997 9.20862L2.87497 12.7633L3.84598 13.0023ZM3.91063 13.3241C3.81943 13.2206 3.80892 13.1191 3.8351 13.0401L2.88585 12.7255C2.73703 13.1747 2.85777 13.6419 3.16033 13.9852L3.91063 13.3241ZM4.3011 13.5C4.12203 13.5 3.99411 13.4294 3.92911 13.3464L3.14184 13.963C3.42685 14.3269 3.86767 14.5 4.3011 14.5V13.5ZM4.63742 13.4043C4.48859 13.4734 4.39139 13.5 4.3011 13.5V14.5C4.60456 14.5 4.85736 14.4047 5.05853 14.3113L4.63742 13.4043ZM7.69442 11.5415L4.58817 13.4306L5.10778 14.285L8.21403 12.396L7.69442 11.5415ZM8.27416 11.5152C8.22925 11.4944 8.1339 11.4535 8.00891 11.4535C7.88392 11.4535 7.78858 11.4944 7.74367 11.5152L8.16478 12.4223C8.16362 12.4228 8.10109 12.4535 8.00891 12.4535C7.91674 12.4535 7.8542 12.4228 7.85305 12.4223L8.27416 11.5152ZM11.4297 13.4306L8.3234 11.5415L7.8038 12.396L10.91 14.285L11.4297 13.4306Z" fill="#FF6500"/>
</svg>
